<mxfile host="app.diagrams.net" modified="2024-04-02T20:59:26.389Z" agent="Mozilla/5.0 (X11; Ubuntu; Linux x86_64; rv:124.0) Gecko/20100101 Firefox/124.0" version="23.1.5" etag="ksGtuHgsdKANMhXR3Xg4" type="github">
  <diagram name="Page-1" id="ImSF_Tm52LE-eaf7d4YP">
    <mxGraphModel>
      <root>
        <mxCell id="0" />
        <mxCell id="1" parent="0" />
      </root>
    </mxGraphModel>
  </diagram>
</mxfile>
